<?xml version="1.0" encoding="utf-8"?>
<!-- Generator: Adobe Illustrator 24.0.2, SVG Export Plug-In . SVG Version: 6.00 Build 0)  -->
<svg version="1.1" id="Layer_1" xmlns="http://www.w3.org/2000/svg" xmlns:xlink="http://www.w3.org/1999/xlink" x="0px" y="0px"
	 viewBox="0 0 173 40" style="enable-background:new 0 0 173 40;" xml:space="preserve">
<style type="text/css">
	.st0{fill:#33CC95;}
	.st1{clip-path:url(#SVGID_2_);}
	.st2{fill:none;stroke:#FFFFFF;stroke-width:2;stroke-linecap:round;stroke-linejoin:round;}
	.st3{fill:#FFFFFF;}
	.st4{font-family:'ChalkboardSE-Light';}
	.st5{font-size:32.0627px;}
</style>
<path class="st0" d="M34.1,5.9C30.4,2.1,25.3,0,20,0S9.6,2.1,5.9,5.9S0,14.7,0,20s2.1,10.4,5.9,14.1S14.7,40,20,40
	s10.4-2.1,14.1-5.9S40,25.3,40,20S37.9,9.6,34.1,5.9z"/>
<g>
	<g>
		<defs>
			<rect id="SVGID_1_" x="6.9" y="6.9" width="27.4" height="27.4"/>
		</defs>
		<clipPath id="SVGID_2_">
			<use xlink:href="#SVGID_1_"  style="overflow:visible;"/>
		</clipPath>
		<g class="st1">
			<path class="st2" d="M20.6,8v25.1"/>
			<path class="st2" d="M26.3,12.6h-8.6c-1.1,0-2.1,0.4-2.8,1.2c-0.8,0.8-1.2,1.8-1.2,2.8c0,1.1,0.4,2.1,1.2,2.8
				c0.8,0.8,1.8,1.2,2.8,1.2h5.7c1.1,0,2.1,0.4,2.8,1.2c0.8,0.8,1.2,1.8,1.2,2.8c0,1.1-0.4,2.1-1.2,2.8c-0.8,0.8-1.8,1.2-2.8,1.2
				h-9.7"/>
		</g>
	</g>
</g>
<text transform="matrix(1 0 0 1 43.8034 26.6777)" class="st3 st4 st5">moneyfy</text>
</svg>
